# xmcd database file
#
# Track frame offsets:
# 151
# 9132
# 20402
# 31868
# 43432
# 55682
# 65776
# 77242
# 87631
# 98998
# 110269
# 126046
# 139374
# 150645
# 161424
# 172695
# 183965
# 195920
# 207387
# 219539
# 231397
# 243549
# 254132
# 266677
# 279612
# 290295
# 307150
# 318715
#
# Disc length: 4438 seconds
#
# Revision: 0
# Processed by: cddbd v1.5.2PL0 Copyright (c) Steve Scherf et al.
# Submitted via: CD-Runner 2006.50
#
DISCID=9d11541c
DTITLE=Fats Domino - Whiskey Heaven
DYEAR=1900
DGENRE=Rock 'N' Roll
TTITLE0=My Old Friend
TTITLE1=I'm Ready
TTITLE2=So Swell When You're Well
TTITLE3=Wait Till It Happens To You
TTITLE4=I Know
TTITLE5=Lady Madonna
TTITLE6=Honest Papas Love Their Mamas Better
TTITLE7=Make Me Belong To You
TTITLE8=One For The Highway
TTITLE9=Lovely Rita
TTITLE10=One More Song For You
TTITLE11=Whiskey Heaven
TTITLE12=I'm Going To Cross That River
TTITLE13=Big Mouth
TTITLE14=It's A Sin To Tell A Lie
TTITLE15=Wait Till It Happens To You (Alt)
TTITLE16=I'm Going To Help A Friend
TTITLE17=The Lady In Black
TTITLE18=Another Mule
TTITLE19=When You're Smiling
TTITLE20=These Old Shoes
TTITLE21=Lawdy Miss Clawdy
TTITLE22=Work My Way Up Steady
TTITLE23=New Orleans Ain't The Same
TTITLE24=Sweet Patootie
TTITLE25=Have You Seen My Baby
TTITLE26=Everybody's Got Something To Hide Except Me And My Monkey
TTITLE27=My Toot Toot
EXTD=
EXTT0=
EXTT1=
EXTT2=
EXTT3=
EXTT4=
EXTT5=
EXTT6=
EXTT7=
EXTT8=
EXTT9=
EXTT10=
EXTT11=
EXTT12=
EXTT13=
EXTT14=
EXTT15=
EXTT16=
EXTT17=
EXTT18=
EXTT19=
EXTT20=
EXTT21=
EXTT22=
EXTT23=
EXTT24=
EXTT25=
EXTT26=
EXTT27=
PLAYORDER=
